<svg width="17" height="17" viewBox="0 0 17 17" fill="none" xmlns="http://www.w3.org/2000/svg">
<path opacity="0.3" d="M14.1665 2.125C14.5422 2.125 14.9026 2.27426 15.1682 2.53993C15.4339 2.80561 15.5832 3.16594 15.5832 3.54167V13.4583C15.5832 13.8341 15.4339 14.1944 15.1682 14.4601C14.9026 14.7257 14.5422 14.875 14.1665 14.875H2.83317C2.45745 14.875 2.09711 14.7257 1.83144 14.4601C1.56576 14.1944 1.4165 13.8341 1.4165 13.4583V3.54167C1.4165 3.16594 1.56576 2.80561 1.83144 2.53993C2.09711 2.27426 2.45745 2.125 2.83317 2.125H14.1665Z" fill="#40465C"/>
<path d="M7.08317 6.375V7.79167H5.6665V6.375H7.08317ZM12.0415 7.79167H9.9165C9.73596 7.79187 9.56231 7.861 9.43103 7.98493C9.29976 8.10887 9.22075 8.27826 9.21017 8.45849C9.19959 8.63872 9.25823 8.81619 9.37411 8.95463C9.48998 9.09308 9.65435 9.18205 9.83363 9.20337L9.9165 9.20833H12.0415C12.222 9.20813 12.3957 9.139 12.527 9.01507C12.6583 8.89113 12.7373 8.72174 12.7478 8.54151C12.7584 8.36128 12.6998 8.18381 12.5839 8.04537C12.468 7.90692 12.3037 7.81795 12.1244 7.79662L12.0415 7.79167Z" fill="#40465C"/>
<path d="M7.08333 4.9585H5.66667C5.30926 4.95838 4.96502 5.09337 4.70295 5.33639C4.44088 5.57941 4.28035 5.91251 4.25354 6.26891L4.25 6.37516V7.79183C4.24989 8.14924 4.38487 8.49348 4.62789 8.75555C4.87092 9.01762 5.20402 9.17815 5.56042 9.20495L5.66667 9.2085H7.08333C7.44074 9.20861 7.78498 9.07363 8.04705 8.8306C8.30912 8.58758 8.46965 8.25448 8.49646 7.89808L8.5 7.79183V6.37516C8.50011 6.01775 8.36513 5.67351 8.12211 5.41144C7.87908 5.14937 7.54598 4.98884 7.18958 4.96204L7.08333 4.9585ZM12.0417 10.6252H4.95833C4.77047 10.6252 4.5903 10.6998 4.45747 10.8326C4.32463 10.9655 4.25 11.1456 4.25 11.3335C4.25 11.5214 4.32463 11.7015 4.45747 11.8344C4.5903 11.9672 4.77047 12.0418 4.95833 12.0418H12.0417C12.2295 12.0418 12.4097 11.9672 12.5425 11.8344C12.6754 11.7015 12.75 11.5214 12.75 11.3335C12.75 11.1456 12.6754 10.9655 12.5425 10.8326C12.4097 10.6998 12.2295 10.6252 12.0417 10.6252Z" fill="#40465C"/>
</svg>
