<svg width="19" height="19" viewBox="0 0 19 19" fill="none" xmlns="http://www.w3.org/2000/svg">
<path d="M5.31984 13.1733C5.5214 13.1145 5.73806 13.1382 5.92216 13.2392C6.10626 13.3401 6.24271 13.5101 6.3015 13.7117C6.36029 13.9132 6.3366 14.1299 6.23565 14.314C6.13469 14.4981 5.96474 14.6345 5.76317 14.6933C5.36734 14.8089 5.08234 14.9308 4.89946 15.0417C5.08788 15.1549 5.38555 15.2815 5.7988 15.3995C6.71317 15.6608 8.0218 15.8333 9.49984 15.8333C10.9779 15.8333 12.2865 15.6608 13.2009 15.3995C13.6149 15.2815 13.9118 15.1549 14.1002 15.0417C13.9181 14.9308 13.6331 14.8089 13.2373 14.6933C13.0389 14.632 12.8726 14.4951 12.7742 14.3122C12.6757 14.1293 12.6531 13.9151 12.7112 13.7157C12.7692 13.5163 12.9033 13.3477 13.0845 13.2463C13.2657 13.1448 13.4795 13.1186 13.6798 13.1733C14.2087 13.3277 14.6932 13.5256 15.0653 13.7798C15.4096 14.0165 15.8332 14.4289 15.8332 15.0417C15.8332 15.6615 15.3993 16.0772 15.0494 16.3139C14.671 16.5688 14.1762 16.7675 13.6355 16.9219C12.5446 17.2346 11.0832 17.4167 9.49984 17.4167C7.9165 17.4167 6.45509 17.2346 5.36417 16.9219C4.82346 16.7675 4.32867 16.5688 3.95025 16.3139C3.60034 16.0764 3.1665 15.6615 3.1665 15.0417C3.1665 14.4289 3.59005 14.0165 3.93442 13.7798C4.3065 13.5256 4.791 13.3277 5.31984 13.1733ZM9.49984 5.9375C8.28067 5.9375 7.51909 7.25721 8.12867 8.3125C8.4113 8.80254 8.9338 9.10417 9.49984 9.10417C10.719 9.10417 11.4806 7.78446 10.871 6.72917C10.732 6.48848 10.5322 6.2886 10.2915 6.14964C10.0508 6.01067 9.77776 5.93751 9.49984 5.9375Z" fill="#40465C"/>
<path opacity="0.3" d="M9.5 1.5835C11.0747 1.5835 12.5849 2.20905 13.6984 3.32255C14.8119 4.43605 15.4375 5.94627 15.4375 7.521C15.4375 9.554 14.3292 11.207 13.1812 12.3818C12.7249 12.8441 12.2346 13.2715 11.7143 13.6604C11.244 14.0135 10.169 14.6753 10.169 14.6753C9.96506 14.7912 9.73454 14.8521 9.5 14.8521C9.26546 14.8521 9.03494 14.7912 8.83104 14.6753C8.2975 14.3659 7.7816 14.0271 7.28571 13.6604C6.76543 13.2715 6.27506 12.8441 5.81875 12.3818C4.67083 11.207 3.5625 9.554 3.5625 7.521C3.5625 5.94627 4.18806 4.43605 5.30155 3.32255C6.41505 2.20905 7.92528 1.5835 9.5 1.5835Z" fill="#40465C"/>
</svg>
