<svg width="68" height="68" viewBox="0 0 68 68" fill="none" xmlns="http://www.w3.org/2000/svg">
<g clip-path="url(#clip0_42_2524)">
<path d="M64.7983 62.3331H53.8333C53.7225 62.338 53.6124 62.3146 53.5132 62.265C53.414 62.2154 53.3292 62.1413 53.2666 62.0498C53.2194 61.9578 53.1947 61.8558 53.1947 61.7523C53.1947 61.6488 53.2194 61.5469 53.2666 61.4548L57.0066 47.2882C57.1072 46.9015 57.1133 46.4963 57.0246 46.1068C56.9358 45.7173 56.7547 45.3548 56.4966 45.0498C56.2272 44.7263 55.889 44.4669 55.5067 44.2904C55.1244 44.114 54.7076 44.0249 54.2866 44.0298H13.7983C13.3773 44.0249 12.9605 44.114 12.5782 44.2904C12.1959 44.4669 11.8577 44.7263 11.5883 45.0498C11.3302 45.3548 11.1491 45.7173 11.0604 46.1068C10.9716 46.4963 10.9777 46.9015 11.0783 47.2882L14.8183 61.4548C14.8655 61.5469 14.8902 61.6488 14.8902 61.7523C14.8902 61.8558 14.8655 61.9578 14.8183 62.0498C14.7487 62.155 14.6501 62.2378 14.5345 62.2881C14.4188 62.3384 14.291 62.3541 14.1666 62.3331H3.20162C2.45017 62.3331 1.7295 62.6317 1.19815 63.163C0.666797 63.6944 0.368286 64.415 0.368286 65.1665C0.368286 65.9179 0.666797 66.6386 1.19815 67.17C1.7295 67.7013 2.45017 67.9998 3.20162 67.9998H64.7983C65.5497 67.9998 66.2704 67.7013 66.8018 67.17C67.3331 66.6386 67.6316 65.9179 67.6316 65.1665C67.6316 64.415 67.3331 63.6944 66.8018 63.163C66.2704 62.6317 65.5497 62.3331 64.7983 62.3331ZM34 50.9998C34.696 50.9942 35.378 51.1955 35.9595 51.5781C36.541 51.9607 36.9957 52.5074 37.266 53.1489C37.5362 53.7904 37.6099 54.4977 37.4775 55.181C37.3452 55.8644 37.0128 56.4931 36.5226 56.9873C36.0324 57.4814 35.4065 57.8189 34.7242 57.9568C34.0419 58.0946 33.334 58.0267 32.6904 57.7617C32.0468 57.4966 31.4964 57.0463 31.1091 56.468C30.7218 55.8896 30.515 55.2092 30.515 54.5131C30.5112 54.0531 30.5986 53.5969 30.7721 53.1708C30.9455 52.7447 31.2016 52.3572 31.5256 52.0305C31.8496 51.7039 32.235 51.4447 32.6597 51.2678C33.0844 51.0909 33.5399 50.9998 34 50.9998ZM17.7933 38.4482C17.8079 38.814 17.9636 39.1599 18.2277 39.4135C18.4918 39.667 18.8438 39.8084 19.21 39.8082H48.79C49.1608 39.8082 49.5169 39.6629 49.7818 39.4033C50.0467 39.1437 50.1992 38.7906 50.2066 38.4198C50.206 35.3879 49.3563 32.4167 47.7539 29.8428C46.1515 27.2689 43.8603 25.1952 41.14 23.8565C41.0337 23.7977 40.9451 23.7115 40.8834 23.6068C40.8217 23.5022 40.7892 23.383 40.7892 23.2615C40.7892 23.14 40.8217 23.0208 40.8834 22.9161C40.9451 22.8115 41.0337 22.7253 41.14 22.6665C43.2888 21.1376 44.8961 18.9653 45.7297 16.4632C46.5634 13.9612 46.5801 11.2589 45.7776 8.74669C44.9751 6.23449 43.3949 4.04238 41.2651 2.48694C39.1354 0.931509 36.5664 0.0932617 33.9291 0.0932617C31.2919 0.0932617 28.7228 0.931509 26.5931 2.48694C24.4634 4.04238 22.8831 6.23449 22.0806 8.74669C21.2781 11.2589 21.2949 13.9612 22.1285 16.4632C22.9621 18.9653 24.5694 21.1376 26.7183 22.6665C26.8181 22.7427 26.8984 22.8415 26.9526 22.9548C27.0068 23.0681 27.0333 23.1926 27.03 23.3181C27.0153 23.4379 26.9714 23.5521 26.9023 23.6509C26.8331 23.7497 26.7407 23.8301 26.6333 23.8848C23.9573 25.2575 21.7144 27.3454 20.1538 29.9164C18.5932 32.4873 17.7761 35.4407 17.7933 38.4482ZM34 27.3982C34.556 27.3982 35.0893 27.619 35.4825 28.0122C35.8757 28.4055 36.0966 28.9387 36.0966 29.4948V32.9515C36.0966 33.5076 35.8757 34.0409 35.4825 34.4341C35.0893 34.8273 34.556 35.0481 34 35.0481C33.4439 35.0481 32.9106 34.8273 32.5174 34.4341C32.1242 34.0409 31.9033 33.5076 31.9033 32.9515V29.4948C31.9033 28.9387 32.1242 28.4055 32.5174 28.0122C32.9106 27.619 33.4439 27.3982 34 27.3982ZM27.3416 10.3982C27.378 10.2964 27.4381 10.2048 27.5169 10.1308C27.5957 10.0569 27.6911 10.0029 27.795 9.97315C27.8863 9.92356 27.9885 9.89758 28.0925 9.89758C28.1964 9.89758 28.2986 9.92356 28.39 9.97315C30.9204 11.6201 33.8708 12.5052 36.89 12.5232C37.9655 12.5114 39.0376 12.3975 40.0916 12.1832C40.1355 12.1608 40.184 12.1491 40.2333 12.1491C40.2825 12.1491 40.3311 12.1608 40.375 12.1832C40.4168 12.2181 40.4509 12.2613 40.4753 12.3101C40.4997 12.3588 40.5137 12.4121 40.5166 12.4665C40.5211 13.4593 40.3089 14.4412 39.895 15.3437C39.4811 16.2462 38.8753 17.0475 38.1199 17.6919C37.3646 18.3363 36.4778 18.8082 35.5213 19.0747C34.5649 19.3412 33.5618 19.396 32.5821 19.2351C31.6023 19.0742 30.6694 18.7017 29.8484 18.1433C29.0274 17.585 28.3381 16.8543 27.8284 16.0022C27.3187 15.1502 27.001 14.1972 26.8973 13.2098C26.7937 12.2223 26.9066 11.2241 27.2283 10.2848L27.3416 10.3982Z" fill="#126C9E"/>
</g>
<defs>
<clipPath id="clip0_42_2524">
<rect width="68" height="68" fill="white"/>
</clipPath>
</defs>
</svg>
