<svg width="19" height="19" viewBox="0 0 19 19" fill="none" xmlns="http://www.w3.org/2000/svg">
<path d="M7.71875 2.375C7.56128 2.375 7.41025 2.43756 7.29891 2.54891C7.18756 2.66026 7.125 2.81128 7.125 2.96875C7.125 3.12622 7.18756 3.27724 7.29891 3.38859C7.41025 3.49994 7.56128 3.5625 7.71875 3.5625H8.90625V15.4375H7.71875C7.56128 15.4375 7.41025 15.5001 7.29891 15.6114C7.18756 15.7228 7.125 15.8738 7.125 16.0312C7.125 16.1887 7.18756 16.3397 7.29891 16.4511C7.41025 16.5624 7.56128 16.625 7.71875 16.625H11.2812C11.4387 16.625 11.5897 16.5624 11.7011 16.4511C11.8124 16.3397 11.875 16.1887 11.875 16.0312C11.875 15.8738 11.8124 15.7228 11.7011 15.6114C11.5897 15.5001 11.4387 15.4375 11.2812 15.4375H10.0938V3.5625H11.2812C11.4387 3.5625 11.5897 3.49994 11.7011 3.38859C11.8124 3.27724 11.875 3.12622 11.875 2.96875C11.875 2.81128 11.8124 2.66026 11.7011 2.54891C11.5897 2.43756 11.4387 2.375 11.2812 2.375H7.71875ZM4.75 4.75H7.71875V14.25H4.75C4.12011 14.25 3.51602 13.9998 3.07062 13.5544C2.62522 13.109 2.375 12.5049 2.375 11.875V7.125C2.375 6.49511 2.62522 5.89102 3.07062 5.44562C3.51602 5.00022 4.12011 4.75 4.75 4.75ZM14.25 14.25H11.2812V4.75H14.25C14.8799 4.75 15.484 5.00022 15.9294 5.44562C16.3748 5.89102 16.625 6.49511 16.625 7.125V11.875C16.625 12.5049 16.3748 13.109 15.9294 13.5544C15.484 13.9998 14.8799 14.25 14.25 14.25Z" fill="#40465C"/>
</svg>
