<svg width="17" height="17" viewBox="0 0 17 17" fill="none" xmlns="http://www.w3.org/2000/svg">
<path d="M11.3333 1.4165V4.24984M5.66667 1.4165V4.24984M14.875 8.49984C14.875 5.82871 14.875 4.4928 14.0448 3.66334C13.2147 2.83388 11.8795 2.83317 9.20833 2.83317H7.79167C5.12054 2.83317 3.78462 2.83317 2.95517 3.66334C2.12571 4.4935 2.125 5.82871 2.125 8.49984V9.9165C2.125 12.5876 2.125 13.9235 2.95517 14.753C3.78533 15.5825 5.12054 15.5832 7.79167 15.5832M2.125 7.08317H14.875" stroke="#40465C" stroke-width="1.5" stroke-linecap="round" stroke-linejoin="round"/>
<path d="M12.9393 13.2464L12.0418 12.7498V11.5223M14.8752 12.7498C14.8752 13.5013 14.5767 14.222 14.0453 14.7533C13.5139 15.2847 12.7933 15.5832 12.0418 15.5832C11.2904 15.5832 10.5697 15.2847 10.0384 14.7533C9.50701 14.222 9.2085 13.5013 9.2085 12.7498C9.2085 11.9984 9.50701 11.2777 10.0384 10.7464C10.5697 10.215 11.2904 9.9165 12.0418 9.9165C12.7933 9.9165 13.5139 10.215 14.0453 10.7464C14.5767 11.2777 14.8752 11.9984 14.8752 12.7498Z" stroke="#40465C" stroke-width="1.5" stroke-linecap="round" stroke-linejoin="round"/>
</svg>
