<svg width="12" height="12" viewBox="0 0 12 12" fill="none" xmlns="http://www.w3.org/2000/svg">
<g clip-path="url(#clip0_42_1997)">
<path d="M4.5 1H1.5C1.36739 1 1.24021 1.05268 1.14645 1.14645C1.05268 1.24021 1 1.36739 1 1.5V4.5C1 4.63261 1.05268 4.75979 1.14645 4.85355C1.24021 4.94732 1.36739 5 1.5 5H4.5C4.63261 5 4.75979 4.94732 4.85355 4.85355C4.94732 4.75979 5 4.63261 5 4.5V1.5C5 1.36739 4.94732 1.24021 4.85355 1.14645C4.75979 1.05268 4.63261 1 4.5 1ZM4.5 7H1.5C1.36739 7 1.24021 7.05268 1.14645 7.14645C1.05268 7.24021 1 7.36739 1 7.5V10.5C1 10.6326 1.05268 10.7598 1.14645 10.8536C1.24021 10.9473 1.36739 11 1.5 11H4.5C4.63261 11 4.75979 10.9473 4.85355 10.8536C4.94732 10.7598 5 10.6326 5 10.5V7.5C5 7.36739 4.94732 7.24021 4.85355 7.14645C4.75979 7.05268 4.63261 7 4.5 7ZM10.5 1H7.5C7.36739 1 7.24021 1.05268 7.14645 1.14645C7.05268 1.24021 7 1.36739 7 1.5V4.5C7 4.63261 7.05268 4.75979 7.14645 4.85355C7.24021 4.94732 7.36739 5 7.5 5H10.5C10.6326 5 10.7598 4.94732 10.8536 4.85355C10.9473 4.75979 11 4.63261 11 4.5V1.5C11 1.36739 10.9473 1.24021 10.8536 1.14645C10.7598 1.05268 10.6326 1 10.5 1Z" stroke="white" stroke-linejoin="round"/>
<path d="M7 7H11M9 9H11M7 11H11" stroke="white" stroke-linecap="round" stroke-linejoin="round"/>
</g>
<defs>
<clipPath id="clip0_42_1997">
<rect width="12" height="12" fill="white"/>
</clipPath>
</defs>
</svg>
