<svg width="22" height="22" viewBox="0 0 22 22" fill="none" xmlns="http://www.w3.org/2000/svg">
<path d="M15.1895 11.709C15.1322 11.5658 15.0391 11.4548 14.9102 11.376C14.7812 11.2972 14.6452 11.2578 14.502 11.2578C14.3444 11.2578 14.2048 11.2972 14.083 11.376C13.9613 11.4548 13.8717 11.5658 13.8145 11.709L11.3008 17.7031C11.2292 17.9036 11.2327 18.097 11.3115 18.2832C11.3903 18.4694 11.5228 18.6055 11.709 18.6914C11.8952 18.7773 12.085 18.7809 12.2783 18.7021C12.4717 18.6234 12.6113 18.4837 12.6973 18.2832L13.3418 16.7578H15.6621L16.3066 18.2832C16.3926 18.4837 16.5286 18.6234 16.7148 18.7021C16.901 18.7809 17.0944 18.7773 17.2949 18.6914C17.4811 18.6055 17.6136 18.4694 17.6924 18.2832C17.7712 18.097 17.7676 17.9036 17.6816 17.7031L15.1895 11.709ZM14.502 13.9434L15.0391 15.2539H13.9648L14.502 13.9434ZM7.1543 3.24414C7.35482 3.24414 7.53027 3.31934 7.68066 3.46973C7.83105 3.62012 7.90625 3.79557 7.90625 3.99609V4.21094H11C11.2005 4.21094 11.376 4.28613 11.5264 4.43652C11.6768 4.58691 11.752 4.76237 11.752 4.96289C11.752 5.17773 11.6768 5.35677 11.5264 5.5C11.376 5.64323 11.2005 5.71484 11 5.71484H9.79688C9.61068 6.23047 9.38151 6.72819 9.10938 7.20801C8.83724 7.68783 8.53646 8.14258 8.20703 8.57227L9.10938 9.51758C9.2526 9.66081 9.32422 9.83626 9.32422 10.0439C9.32422 10.2516 9.24544 10.4271 9.08789 10.5703C8.94466 10.7135 8.76921 10.7852 8.56152 10.7852C8.35384 10.7852 8.17839 10.7064 8.03516 10.5488L7.26172 9.75391C6.96094 10.0977 6.66016 10.4199 6.35938 10.7207C6.05859 11.0215 5.76497 11.3008 5.47852 11.5586C5.33529 11.6875 5.15983 11.7484 4.95215 11.7412C4.74447 11.734 4.56901 11.6589 4.42578 11.5156C4.28255 11.3581 4.21452 11.1755 4.22168 10.9678C4.22884 10.7601 4.3112 10.5846 4.46875 10.4414C4.75521 10.1836 5.04883 9.90072 5.34961 9.59277C5.65039 9.28483 5.95117 8.95898 6.25195 8.61523C6.19466 8.54362 6.13379 8.46484 6.06934 8.37891C6.00488 8.29297 5.94401 8.21419 5.88672 8.14258C5.77214 7.9707 5.65755 7.79883 5.54297 7.62695C5.42839 7.45508 5.34245 7.30469 5.28516 7.17578C5.19922 6.98958 5.19206 6.7998 5.26367 6.60645C5.33529 6.41309 5.46419 6.27344 5.65039 6.1875C5.83659 6.10156 6.02637 6.0944 6.21973 6.16602C6.41309 6.23763 6.55273 6.36654 6.63867 6.55273C6.66732 6.61003 6.72103 6.69954 6.7998 6.82129C6.87858 6.94303 6.98242 7.08984 7.11133 7.26172C7.12565 7.27604 7.13997 7.29753 7.1543 7.32617C7.16862 7.35482 7.1901 7.38346 7.21875 7.41211C7.40495 7.13997 7.5804 6.86068 7.74512 6.57422C7.90983 6.28776 8.05664 6.0013 8.18555 5.71484H3.99609C3.79557 5.71484 3.62012 5.64323 3.46973 5.5C3.31934 5.35677 3.24414 5.17773 3.24414 4.96289C3.24414 4.76237 3.31934 4.58691 3.46973 4.43652C3.62012 4.28613 3.79557 4.21094 3.99609 4.21094H6.40234V3.99609C6.40234 3.79557 6.47396 3.62012 6.61719 3.46973C6.76042 3.31934 6.93945 3.24414 7.1543 3.24414ZM8.44336 0.257812H8.55078C9.35286 0.257812 10.0726 0.261393 10.71 0.268555C11.3473 0.275717 11.9167 0.307943 12.418 0.365234C12.9336 0.422525 13.4062 0.526367 13.8359 0.676758C14.2656 0.827148 14.6595 1.04557 15.0176 1.33203C15.1322 1.43229 15.2467 1.53613 15.3613 1.64355C15.4759 1.75098 15.5762 1.86198 15.6621 1.97656C16.0202 2.40625 16.2708 2.89681 16.4141 3.44824C16.5573 3.99967 16.6504 4.61914 16.6934 5.30664C17.3809 5.34961 18.0003 5.44271 18.5518 5.58594C19.1032 5.72917 19.5938 5.97982 20.0234 6.33789C20.138 6.42383 20.249 6.52409 20.3564 6.63867C20.4639 6.75325 20.5677 6.86784 20.668 6.98242C20.9544 7.3405 21.1729 7.73438 21.3232 8.16406C21.4736 8.59375 21.5775 9.06641 21.6348 9.58203C21.6921 10.0833 21.7243 10.6527 21.7314 11.29C21.7386 11.9274 21.7422 12.6471 21.7422 13.4492V13.5566C21.7422 14.3587 21.7386 15.0785 21.7314 15.7158C21.7243 16.3532 21.6921 16.9225 21.6348 17.4238C21.5775 17.9395 21.4736 18.4121 21.3232 18.8418C21.1729 19.2715 20.9544 19.6654 20.668 20.0234C20.5677 20.138 20.4639 20.249 20.3564 20.3564C20.249 20.4639 20.138 20.5677 20.0234 20.668C19.6654 20.9544 19.2715 21.1729 18.8418 21.3232C18.4121 21.4736 17.9395 21.5775 17.4238 21.6348C16.9225 21.6921 16.3532 21.7243 15.7158 21.7314C15.0785 21.7386 14.3587 21.7422 13.5566 21.7422H13.4492C12.6471 21.7422 11.9274 21.7386 11.29 21.7314C10.6527 21.7243 10.0833 21.6921 9.58203 21.6348C9.06641 21.5775 8.59375 21.4736 8.16406 21.3232C7.73438 21.1729 7.34049 20.9544 6.98242 20.668C6.86784 20.5677 6.75326 20.4639 6.63867 20.3564C6.52409 20.249 6.42383 20.138 6.33789 20.0234C5.97982 19.5938 5.72917 19.1032 5.58594 18.5518C5.44271 18.0003 5.34961 17.3809 5.30664 16.6934C4.61914 16.6504 3.99967 16.5573 3.44824 16.4141C2.89681 16.2708 2.40625 16.0202 1.97656 15.6621C1.86198 15.5762 1.75098 15.4759 1.64355 15.3613C1.53613 15.2467 1.43229 15.1322 1.33203 15.0176C1.04557 14.6595 0.827148 14.2656 0.676758 13.8359C0.526367 13.4062 0.422526 12.9336 0.365234 12.418C0.307943 11.9167 0.275716 11.3473 0.268555 10.71C0.261393 10.0726 0.257812 9.35286 0.257812 8.55078V8.44336C0.257812 7.64128 0.261393 6.92155 0.268555 6.28418C0.275716 5.64681 0.307943 5.07747 0.365234 4.57617C0.422526 4.06055 0.526367 3.58789 0.676758 3.1582C0.827148 2.72852 1.04557 2.33463 1.33203 1.97656C1.43229 1.86198 1.53613 1.75098 1.64355 1.64355C1.75098 1.53613 1.86198 1.43229 1.97656 1.33203C2.33464 1.04557 2.72852 0.827148 3.1582 0.676758C3.58789 0.526367 4.06055 0.422525 4.57617 0.365234C5.07747 0.307943 5.64681 0.275717 6.28418 0.268555C6.92155 0.261393 7.64128 0.257812 8.44336 0.257812ZM6.78906 16.2852C6.81771 17.0299 6.88574 17.6136 6.99316 18.0361C7.10059 18.4587 7.26888 18.7988 7.49805 19.0566C7.55534 19.1426 7.62337 19.2214 7.70215 19.293C7.78092 19.3646 7.85612 19.4362 7.92773 19.5078C8.12826 19.6797 8.37175 19.8158 8.6582 19.916C8.94466 20.0163 9.3099 20.0951 9.75391 20.1523C10.2122 20.1953 10.7422 20.224 11.3438 20.2383C11.9453 20.2526 12.6615 20.2598 13.4922 20.2598C14.3229 20.2598 15.0426 20.2526 15.6514 20.2383C16.2601 20.224 16.7936 20.1953 17.252 20.1523C17.696 20.0951 18.0576 20.0163 18.3369 19.916C18.6162 19.8158 18.8561 19.6797 19.0566 19.5078C19.1426 19.4362 19.2214 19.3646 19.293 19.293C19.3646 19.2214 19.4362 19.1426 19.5078 19.0566C19.6797 18.8561 19.8158 18.6162 19.916 18.3369C20.0163 18.0576 20.0951 17.696 20.1523 17.252C20.1953 16.7936 20.224 16.2601 20.2383 15.6514C20.2526 15.0426 20.2598 14.3229 20.2598 13.4922C20.2598 12.6615 20.2526 11.9453 20.2383 11.3438C20.224 10.7422 20.1953 10.2122 20.1523 9.75391C20.0951 9.3099 20.0163 8.94466 19.916 8.6582C19.8158 8.37175 19.6797 8.12825 19.5078 7.92773C19.4362 7.85612 19.3646 7.78092 19.293 7.70215C19.2214 7.62337 19.1426 7.55534 19.0566 7.49805C18.7988 7.26888 18.4622 7.10059 18.0469 6.99316C17.6315 6.88574 17.0514 6.81771 16.3066 6.78906L6.78906 16.2852ZM15.2109 5.73633C15.1823 4.97721 15.1143 4.38639 15.0068 3.96387C14.8994 3.54134 14.7311 3.20117 14.502 2.94336C14.4447 2.85742 14.3766 2.77865 14.2979 2.70703C14.2191 2.63542 14.1439 2.5638 14.0723 2.49219C13.8717 2.32031 13.6283 2.18424 13.3418 2.08398C13.0553 1.98372 12.6901 1.90495 12.2461 1.84766C11.7878 1.80469 11.2578 1.77604 10.6562 1.76172C10.0547 1.7474 9.33854 1.74023 8.50781 1.74023C7.67708 1.74023 6.95736 1.7474 6.34863 1.76172C5.73991 1.77604 5.20638 1.80469 4.74805 1.84766C4.30404 1.90495 3.94238 1.98372 3.66309 2.08398C3.38379 2.18424 3.14388 2.32031 2.94336 2.49219C2.85742 2.5638 2.77865 2.63542 2.70703 2.70703C2.63542 2.77865 2.5638 2.85742 2.49219 2.94336C2.32031 3.14388 2.18424 3.38379 2.08398 3.66309C1.98372 3.94238 1.90495 4.30404 1.84766 4.74805C1.80469 5.20638 1.77604 5.73991 1.76172 6.34863C1.7474 6.95736 1.74023 7.67708 1.74023 8.50781C1.74023 9.33854 1.7474 10.0547 1.76172 10.6562C1.77604 11.2578 1.80469 11.7878 1.84766 12.2461C1.90495 12.6901 1.98372 13.0553 2.08398 13.3418C2.18424 13.6283 2.32031 13.8717 2.49219 14.0723C2.5638 14.1439 2.63542 14.2191 2.70703 14.2979C2.77865 14.3766 2.85742 14.4447 2.94336 14.502C3.20117 14.7311 3.54134 14.8994 3.96387 15.0068C4.38639 15.1143 4.97005 15.1823 5.71484 15.2109L15.2109 5.73633Z" fill="#161616"/>
</svg>
