<svg width="67" height="67" viewBox="0 0 67 67" fill="none" xmlns="http://www.w3.org/2000/svg">
<path d="M58.625 62.8125V16.75H46.0625V4.1875H8.375V62.8125H0V67H29.3125V54.4375H37.6875V67H67V62.8125H58.625ZM25.125 46.0625H16.75V37.6875H25.125V46.0625ZM25.125 33.5H16.75V25.125H25.125V33.5ZM25.125 20.9375H16.75V12.5625H25.125V20.9375ZM37.6875 46.0625H29.3125V37.6875H37.6875V46.0625ZM37.6875 33.5H29.3125V25.125H37.6875V33.5ZM37.6875 20.9375H29.3125V12.5625H37.6875V20.9375ZM54.4375 46.0625H46.0625V37.6875H54.4375V46.0625ZM54.4375 33.5H46.0625V25.125H54.4375V33.5Z" fill="#126C9E"/>
</svg>
