<svg width="20" height="20" viewBox="0 0 20 20" fill="none" xmlns="http://www.w3.org/2000/svg">
<path d="M4.68016 16.6668C4.30961 16.6668 3.99266 16.5349 3.72933 16.271C3.466 16.0071 3.33405 15.6907 3.3335 15.3218V6.2385C3.3335 6.08183 3.35933 5.93044 3.411 5.78433C3.46266 5.63822 3.54044 5.50488 3.64433 5.38433L4.94266 3.826C5.06322 3.66711 5.21405 3.54544 5.39516 3.461C5.57627 3.37655 5.77127 3.33405 5.98016 3.3335H13.9885C14.1974 3.3335 14.3943 3.376 14.5793 3.461C14.7643 3.54544 14.9185 3.66711 15.0418 3.826L16.356 5.41683C16.4599 5.54183 16.5377 5.6785 16.5893 5.82683C16.641 5.97461 16.6668 6.12794 16.6668 6.28683V9.42516C16.5524 9.39183 16.431 9.36794 16.3027 9.3535C16.1743 9.33905 16.0502 9.33183 15.9302 9.33183C15.2685 9.33183 14.6432 9.45877 14.0543 9.71266C13.4649 9.96655 12.9468 10.3274 12.5002 10.7952V6.50683H7.50016V12.1635L10.0002 10.9135L11.7052 11.7585C11.4874 12.1252 11.3171 12.5185 11.1943 12.9385C11.0716 13.3591 11.0102 13.7938 11.0102 14.2427C11.0102 14.6749 11.0677 15.0966 11.1827 15.5077C11.2982 15.9182 11.4682 16.3046 11.6927 16.6668H4.68016ZM15.4968 17.1635V14.6635H12.9968V13.8302H15.4968V11.3302H16.3302V13.8302H18.8302V14.6635H16.3302V17.1635H15.4968ZM4.48433 5.6735H15.5002L14.3918 4.3435C14.3379 4.29016 14.2763 4.24739 14.2068 4.21516C14.1374 4.18294 14.0652 4.16683 13.9902 4.16683H5.9935C5.91905 4.16683 5.84683 4.18294 5.77683 4.21516C5.70683 4.24739 5.64572 4.29016 5.5935 4.3435L4.48433 5.6735Z" fill="#40465C"/>
</svg>
