<svg width="18" height="18" viewBox="0 0 18 18" fill="none" xmlns="http://www.w3.org/2000/svg">
<path d="M15 4.5H3V3H15V4.5ZM14.25 9C12.8175 9 11.5275 9.57 10.5825 10.5H10.5V10.5825C9.57 11.5275 9 12.8175 9 14.25C9 14.505 9.0225 14.7525 9.06 15H3V10.5H2.25V9L3 5.25H15L15.75 9V9.225C15.2775 9.0825 14.775 9 14.25 9ZM9 10.5H4.5V13.5H9V10.5ZM17.85 15.3C17.925 15.3 17.925 15.375 17.85 15.45L17.1 16.725C17.025 16.8 16.95 16.8 16.875 16.8L15.975 16.5C15.75 16.65 15.6 16.725 15.375 16.875L15.225 17.85C15.225 17.925 15.15 18 15.075 18H13.575C13.5 18 13.425 17.925 13.35 17.85L13.2 16.875C12.975 16.8 12.75 16.65 12.6 16.5L11.7 16.875C11.625 16.875 11.55 16.875 11.475 16.8L10.725 15.525C10.65 15.45 10.725 15.375 10.8 15.3L11.625 14.7V13.95L10.8 13.35C10.725 13.275 10.725 13.2 10.725 13.125L11.475 11.85C11.55 11.775 11.625 11.775 11.7 11.775L12.6 12.15C12.825 12 12.975 11.925 13.2 11.775L13.35 10.8C13.35 10.725 13.425 10.65 13.575 10.65H15.075C15.15 10.65 15.225 10.725 15.225 10.8L15.375 11.775C15.6 11.85 15.825 12 16.05 12.15L16.95 11.775C17.025 11.775 17.175 11.775 17.175 11.85L17.925 13.125C18 13.2 17.925 13.275 17.85 13.35L17.025 13.95V14.7L17.85 15.3ZM15.375 14.25C15.375 13.65 14.85 13.125 14.25 13.125C13.65 13.125 13.125 13.65 13.125 14.25C13.125 14.85 13.65 15.375 14.25 15.375C14.85 15.375 15.375 14.85 15.375 14.25Z" fill="#40465C"/>
</svg>
