<svg width="15" height="15" viewBox="0 0 15 15" fill="none" xmlns="http://www.w3.org/2000/svg">
<g clip-path="url(#clip0_42_1877)">
<path d="M13.74 6.25C13.7169 5.43063 13.6394 4.90812 13.3769 4.4625C13.0031 3.82812 12.3306 3.475 10.9862 2.77L9.73625 2.11375C8.63875 1.53812 8.09 1.25 7.5 1.25C6.91 1.25 6.36125 1.5375 5.26375 2.11375L4.01375 2.77C2.66937 3.475 1.99687 3.82812 1.62312 4.4625C1.25 5.09625 1.25 5.88563 1.25 7.46375V7.53688C1.25 9.11437 1.25 9.90375 1.62312 10.5375C1.99687 11.1719 2.66937 11.525 4.01375 12.2306L5.26375 12.8863C6.36125 13.4619 6.91 13.75 7.5 13.75C8.09 13.75 8.63875 13.4625 9.73625 12.8863L10.9862 12.23C12.3306 11.5244 13.0031 11.1719 13.3769 10.5375C13.6394 10.0919 13.7169 9.56937 13.74 8.75M13.125 4.6875L10.625 5.9375M10.625 5.9375L10.3125 6.09375L7.5 7.5M10.625 5.9375V8.125M10.625 5.9375L4.6875 2.8125M7.5 7.5L1.875 4.6875M7.5 7.5V13.4375" stroke="#40465C" stroke-width="1.5" stroke-linecap="round"/>
</g>
<defs>
<clipPath id="clip0_42_1877">
<rect width="15" height="15" fill="white"/>
</clipPath>
</defs>
</svg>
