<svg width="13" height="13" viewBox="0 0 13 13" fill="none" xmlns="http://www.w3.org/2000/svg">
<path d="M3.7915 3.7915H3.24984C2.96252 3.7915 2.68697 3.90564 2.4838 4.1088C2.28064 4.31197 2.1665 4.58752 2.1665 4.87484V9.74984C2.1665 10.0372 2.28064 10.3127 2.4838 10.5159C2.68697 10.719 2.96252 10.8332 3.24984 10.8332H8.12484C8.41215 10.8332 8.6877 10.719 8.89087 10.5159C9.09403 10.3127 9.20817 10.0372 9.20817 9.74984V9.20817" stroke="white" stroke-linecap="round" stroke-linejoin="round"/>
<path d="M8.66667 2.70839L10.2917 4.33339M11.0419 3.56693C11.2552 3.3536 11.3751 3.06426 11.3751 2.76256C11.3751 2.46086 11.2552 2.17152 11.0419 1.95818C10.8285 1.74485 10.5392 1.625 10.2375 1.625C9.9358 1.625 9.64646 1.74485 9.43313 1.95818L4.875 6.50006V8.12506H6.5L11.0419 3.56693Z" stroke="white" stroke-linecap="round" stroke-linejoin="round"/>
</svg>
