<svg width="19" height="19" viewBox="0 0 19 19" fill="none" xmlns="http://www.w3.org/2000/svg">
<path d="M13.5417 11.9167H12.6858L12.3825 11.6242C13.4809 10.3502 14.0846 8.72377 14.0833 7.04167C14.0833 5.64896 13.6704 4.28753 12.8966 3.12953C12.1229 1.97153 11.0231 1.06899 9.7364 0.536018C8.4497 0.00305105 7.03386 -0.136397 5.66791 0.135307C4.30196 0.407011 3.04725 1.07766 2.06246 2.06246C1.07766 3.04725 0.407011 4.30196 0.135307 5.66791C-0.136397 7.03386 0.00305105 8.4497 0.536018 9.7364C1.06899 11.0231 1.97153 12.1229 3.12953 12.8966C4.28753 13.6704 5.64896 14.0833 7.04167 14.0833C8.78584 14.0833 10.3892 13.4442 11.6242 12.3825L11.9167 12.6858V13.5417L17.3333 18.9475L18.9475 17.3333L13.5417 11.9167ZM7.04167 11.9167C4.34417 11.9167 2.16667 9.73917 2.16667 7.04167C2.16667 4.34417 4.34417 2.16667 7.04167 2.16667C9.73917 2.16667 11.9167 4.34417 11.9167 7.04167C11.9167 9.73917 9.73917 11.9167 7.04167 11.9167Z" fill="#126C9E"/>
</svg>
